<svg width="20" height="20" viewBox="0 0 20 20" fill="none" xmlns="http://www.w3.org/2000/svg">
<path d="M19.5586 9.55711C19.5604 9.55711 19.5617 9.55711 19.5634 9.55711C19.6852 9.55711 19.8014 9.50602 19.8839 9.41652C19.9677 9.3257 20.0092 9.20389 19.9983 9.08076C19.5599 4.25925 15.7429 0.440639 10.9212 0.00140703C10.7989 -0.00819844 10.6758 0.0315333 10.585 0.1158C10.4942 0.199629 10.4436 0.317951 10.4449 0.441512C10.5208 6.84924 11.3661 9.4676 19.5586 9.55711ZM19.5586 10.4426C11.3661 10.5321 10.5213 13.1504 10.4453 19.5581C10.444 19.6817 10.4946 19.8 10.5855 19.8839C10.6667 19.9585 10.7728 20 10.8819 20C10.895 20 10.9085 19.9996 10.9216 19.9983C15.7433 19.559 19.5604 15.7408 19.9983 10.9189C20.0092 10.7958 19.9681 10.674 19.8839 10.5831C19.7996 10.4923 19.6822 10.4474 19.5586 10.4426ZM9.04954 0.00359014C4.24316 0.455484 0.438304 4.27322 0.0021535 9.08163C-0.00876118 9.20476 0.032278 9.32658 0.116539 9.41739C0.199054 9.5069 0.315623 9.55754 0.436994 9.55754C0.43874 9.55754 0.440487 9.55754 0.442233 9.55754C8.60772 9.46367 9.45077 6.84662 9.52761 0.443259C9.52892 0.319697 9.47784 0.200939 9.38703 0.117109C9.29534 0.0332798 9.17266 -0.00776178 9.04954 0.00359014ZM0.441797 10.4421C0.306018 10.4268 0.199491 10.4915 0.116103 10.5823C0.0322781 10.6731 -0.00919773 10.7949 0.00171694 10.918C0.437867 15.7264 4.24316 19.5442 9.04954 19.9961C9.06308 19.9974 9.07705 19.9978 9.09058 19.9978C9.19973 19.9978 9.30538 19.9568 9.38659 19.8821C9.4774 19.7983 9.52848 19.6795 9.52717 19.556C9.45033 13.153 8.60772 10.536 0.441797 10.4421Z" fill="#F9FBFD"/>
</svg>
